<svg width="1600" height="1000" viewBox="0 0 1600 1000" fill="none" xmlns="http://www.w3.org/2000/svg">
  <defs>
    <linearGradient id="sky" x1="800" y1="0" x2="800" y2="1000" gradientUnits="userSpaceOnUse">
      <stop stop-color="#07111F"/>
      <stop offset="0.46" stop-color="#0E1728"/>
      <stop offset="1" stop-color="#050B14"/>
    </linearGradient>
    <linearGradient id="panel" x1="0" y1="0" x2="0" y2="1" gradientUnits="userSpaceOnUse">
      <stop stop-color="#172238"/>
      <stop offset="1" stop-color="#0F1A2C"/>
    </linearGradient>
    <linearGradient id="desk" x1="0" y1="0" x2="0" y2="1" gradientUnits="userSpaceOnUse">
      <stop stop-color="#24324E"/>
      <stop offset="1" stop-color="#121B2D"/>
    </linearGradient>
    <radialGradient id="lampGlow" cx="0" cy="0" r="1" gradientUnits="userSpaceOnUse" gradientTransform="translate(1220 260) rotate(90) scale(210 270)">
      <stop stop-color="#7DD3FC" stop-opacity="0.24"/>
      <stop offset="0.55" stop-color="#38BDF8" stop-opacity="0.08"/>
      <stop offset="1" stop-color="#38BDF8" stop-opacity="0"/>
    </radialGradient>
    <filter id="blur20" x="-20%" y="-20%" width="140%" height="140%">
      <feGaussianBlur stdDeviation="20"/>
    </filter>
  </defs>

  <rect width="1600" height="1000" fill="url(#sky)"/>
  <rect x="0" y="0" width="1600" height="1000" fill="url(#lampGlow)"/>
  <circle cx="1220" cy="230" r="120" fill="#38BDF8" fill-opacity="0.12" filter="url(#blur20)"/>
  <circle cx="380" cy="180" r="180" fill="#2563EB" fill-opacity="0.08" filter="url(#blur20)"/>

  <!-- back wall -->
  <rect x="110" y="110" width="1380" height="640" rx="28" fill="#0C1525" fill-opacity="0.92"/>
  <rect x="160" y="160" width="510" height="300" rx="18" fill="url(#panel)"/>
  <rect x="720" y="160" width="560" height="300" rx="18" fill="#111B2E"/>
  <rect x="1320" y="160" width="120" height="300" rx="18" fill="#10182A"/>

  <!-- windows -->
  <rect x="214" y="210" width="120" height="150" rx="10" fill="#0A1424" stroke="#2D3C59" stroke-width="2"/>
  <rect x="354" y="210" width="120" height="150" rx="10" fill="#0A1424" stroke="#2D3C59" stroke-width="2"/>
  <rect x="494" y="210" width="120" height="150" rx="10" fill="#0A1424" stroke="#2D3C59" stroke-width="2"/>
  <path d="M214 245H614" stroke="#2D3C59" stroke-width="2" opacity="0.7"/>
  <path d="M214 285H614" stroke="#2D3C59" stroke-width="2" opacity="0.45"/>
  <path d="M214 325H614" stroke="#2D3C59" stroke-width="2" opacity="0.35"/>
  <path d="M274 210V360M414 210V360M554 210V360" stroke="#2D3C59" stroke-width="2" opacity="0.75"/>

  <!-- wall boards / frames -->
  <rect x="760" y="205" width="170" height="100" rx="12" fill="#0F1A2D" stroke="#31415E" stroke-width="2"/>
  <rect x="950" y="185" width="130" height="140" rx="12" fill="#0F1A2D" stroke="#31415E" stroke-width="2"/>
  <rect x="1100" y="205" width="220" height="100" rx="12" fill="#0F1A2D" stroke="#31415E" stroke-width="2"/>
  <path d="M790 235H900M790 260H878" stroke="#6B7A99" stroke-width="6" stroke-linecap="round" opacity="0.5"/>
  <path d="M980 225H1050M980 250H1040M980 275H1030" stroke="#6B7A99" stroke-width="6" stroke-linecap="round" opacity="0.45"/>
  <path d="M1140 235H1280M1140 260H1260" stroke="#6B7A99" stroke-width="6" stroke-linecap="round" opacity="0.4"/>

  <!-- hanging lamps -->
  <g>
    <rect x="1140" y="92" width="4" height="88" rx="2" fill="#4B5E7C"/>
    <rect x="1085" y="108" width="4" height="72" rx="2" fill="#4B5E7C"/>
    <rect x="1228" y="100" width="4" height="80" rx="2" fill="#4B5E7C"/>
    <ellipse cx="1142" cy="190" rx="42" ry="12" fill="#9EDBFF" fill-opacity="0.12"/>
    <ellipse cx="1087" cy="188" rx="34" ry="10" fill="#9EDBFF" fill-opacity="0.10"/>
    <ellipse cx="1230" cy="190" rx="36" ry="11" fill="#9EDBFF" fill-opacity="0.12"/>
  </g>

  <!-- floor -->
  <path d="M110 750C340 690 1260 690 1490 750V910H110V750Z" fill="#08111F"/>
  <path d="M110 750C340 700 1260 700 1490 750" stroke="#25324C" stroke-width="2" opacity="0.6"/>
  <path d="M145 800C360 760 1240 760 1455 800" stroke="#1F2B42" stroke-width="2" opacity="0.6"/>

  <!-- desk cluster -->
  <g>
    <rect x="360" y="560" width="760" height="28" rx="10" fill="url(#desk)"/>
    <rect x="410" y="588" width="28" height="150" rx="8" fill="#182338"/>
    <rect x="1042" y="588" width="28" height="150" rx="8" fill="#182338"/>
    <rect x="480" y="520" width="460" height="52" rx="18" fill="#152033" stroke="#2C3A57" stroke-width="2"/>
    <rect x="528" y="534" width="95" height="18" rx="9" fill="#1F2E49"/>
    <rect x="644" y="534" width="95" height="18" rx="9" fill="#1F2E49"/>
    <rect x="760" y="534" width="95" height="18" rx="9" fill="#1F2E49"/>
  </g>

  <!-- chairs -->
  <g opacity="0.95">
    <rect x="510" y="610" width="84" height="120" rx="20" fill="#111A2C" stroke="#32415F" stroke-width="2"/>
    <rect x="676" y="610" width="84" height="120" rx="20" fill="#111A2C" stroke="#32415F" stroke-width="2"/>
    <rect x="842" y="610" width="84" height="120" rx="20" fill="#111A2C" stroke="#32415F" stroke-width="2"/>
    <rect x="540" y="720" width="24" height="78" rx="8" fill="#172033"/>
    <rect x="706" y="720" width="24" height="78" rx="8" fill="#172033"/>
    <rect x="872" y="720" width="24" height="78" rx="8" fill="#172033"/>
  </g>

  <!-- monitors -->
  <g>
    <rect x="580" y="472" width="104" height="64" rx="10" fill="#0B1422" stroke="#2B3955" stroke-width="2"/>
    <rect x="588" y="480" width="88" height="48" rx="8" fill="#0F2740"/>
    <rect x="708" y="472" width="104" height="64" rx="10" fill="#0B1422" stroke="#2B3955" stroke-width="2"/>
    <rect x="716" y="480" width="88" height="48" rx="8" fill="#113153"/>
    <rect x="836" y="472" width="104" height="64" rx="10" fill="#0B1422" stroke="#2B3955" stroke-width="2"/>
    <rect x="844" y="480" width="88" height="48" rx="8" fill="#0F2740"/>
  </g>

  <!-- plant and side details -->
  <g>
    <rect x="210" y="610" width="80" height="130" rx="18" fill="#101A2A" stroke="#2B3955" stroke-width="2"/>
    <path d="M240 610C228 590 222 566 234 544C252 558 264 580 266 610" fill="#2563EB" fill-opacity="0.28"/>
    <path d="M246 610C252 578 270 554 294 544C300 574 292 598 278 610" fill="#0EA5E9" fill-opacity="0.22"/>
    <path d="M252 610C264 586 286 570 314 568C308 596 292 610 274 618" fill="#38BDF8" fill-opacity="0.18"/>
  </g>

  <!-- foreground blur/overlay shapes -->
  <ellipse cx="800" cy="960" rx="560" ry="90" fill="#020817" fill-opacity="0.65"/>
  <rect y="0" width="1600" height="1000" fill="url(#sky)" fill-opacity="0.15"/>
</svg>
